<?xml version="1.0" encoding="UTF-8"?>
<svg width="124px" height="124px" viewBox="0 0 124 124" version="1.1" xmlns="http://www.w3.org/2000/svg" xmlns:xlink="http://www.w3.org/1999/xlink">
    <!-- Generator: Sketch 48.2 (47327) - http://www.bohemiancoding.com/sketch -->
    <title>engine</title>
    <desc>Created with Sketch.</desc>
    <defs></defs>
    <g id="Page-1" stroke="none" stroke-width="1" fill="none" fill-rule="evenodd">
        <g id="engine">
            <circle id="Oval-7-Copy" fill="#FFFFFF" cx="62" cy="62" r="62"></circle>
            <g transform="translate(40.000000, 57.000000)">
                <rect id="hanger" fill="#A6A6A6" x="18" y="0" width="8" height="11"></rect>
                <path d="M21.9995074,46.6586416 C43.9990148,46.6586416 43.9990148,38.4877884 43.9990148,26.5732251 C43.9990148,14.6586619 34.1494998,5 21.9995074,5 C9.84951495,5 0,14.6586619 0,26.5732251 C0,38.4877884 0,46.6586416 21.9995074,46.6586416 Z" fill="#C0DCFF"></path>
                <ellipse id="blade-ring" fill="#8EAADB" cx="22.1485746" cy="25.9145373" rx="16.1485746" ry="15.9145373"></ellipse>
                <circle id="center-cone" fill="#9DBDF2" cx="22.5" cy="25.5" r="3.5"></circle>
                <path d="M21.9995074,5 C26.0887299,5 29.9173687,6.09407336 33.1976269,8 L10.8013879,8 C14.0816461,6.09407336 17.9102848,5 21.9995074,5 Z" id="engine-shadow" fill="#A6BFDE"></path>
            </g>
            <g id="plane" transform="translate(1.000000, 30.000000)">
                <polygon id="wing" fill="#CFCFCF" points="0 24 115 15 115 27 0 27"></polygon>
                <path d="M111.054391,15.4653086 L117,15 L117,27 L111.694084,27 C111.237151,24.0669696 111,21.0611796 111,18 C111,17.1507158 111.018254,16.305695 111.054391,15.4653086 Z" id="tube-shadow" fill="#BDBDBD"></path>
                <path d="M121.719028,44.5990555 C116.192296,35.7168778 113,25.2312392 113,14 C113,9.424065 113.529917,4.97189864 114.53173,0.701520301 C119.91442,9.88802444 123,20.5836743 123,32 C123,36.3169421 122.558799,40.5308362 121.719029,44.5990503 L121.719028,44.5990555 Z" id="new-tube" fill="#CFCFCF"></path>
            </g>
        </g>
    </g>
</svg>