<?xml version="1.0" encoding="UTF-8"?>
<svg width="209px" height="103px" viewBox="0 0 209 103" version="1.1" xmlns="http://www.w3.org/2000/svg" xmlns:xlink="http://www.w3.org/1999/xlink">
    <!-- Generator: Sketch 48.2 (47327) - http://www.bohemiancoding.com/sketch -->
    <title>original-logo-dark</title>
    <desc>Created with Sketch.</desc>
    <defs>
        <linearGradient x1="86.3141064%" y1="43.8555107%" x2="0%" y2="67.124107%" id="linearGradient-1">
            <stop stop-color="#C9DBF4" offset="0%"></stop>
            <stop stop-color="#98B4E5" offset="100%"></stop>
        </linearGradient>
        <linearGradient x1="90.3943263%" y1="84.0820237%" x2="3.8715104%" y2="50%" id="linearGradient-2">
            <stop stop-color="#C9DBF4" offset="0%"></stop>
            <stop stop-color="#98B4E5" offset="100%"></stop>
        </linearGradient>
    </defs>
    <g id="Page-1" stroke="none" stroke-width="1" fill="none" fill-rule="evenodd">
        <g id="original-logo-dark">
            <g id="vf-original" transform="translate(-1.000000, -1.000000)">
                <g id="text" transform="translate(34.000000, 28.000000)">
                    <path d="M22.488,19.664 L25.368,19.664 L14.36,50 L11.544,50 L0.536,19.664 L3.416,19.664 L12.952,46.8 L22.488,19.664 Z M57.112,34.832 C57.112,36.8800102 56.8240029,38.8533238 56.248,40.752 C55.6719971,42.6506762 54.8080058,44.3359926 53.656,45.808 C52.5039942,47.2800074 51.0640086,48.453329 49.336,49.328 C47.6079914,50.202671 45.6133446,50.64 43.352,50.64 C41.0906554,50.64 39.0960086,50.202671 37.368,49.328 C35.6399914,48.453329 34.2000058,47.2800074 33.048,45.808 C31.8959942,44.3359926 31.0320029,42.6506762 30.456,40.752 C29.8799971,38.8533238 29.592,36.8800102 29.592,34.832 C29.592,32.7839898 29.8799971,30.8106762 30.456,28.912 C31.0320029,27.0133238 31.8959942,25.3280074 33.048,23.856 C34.2000058,22.3839926 35.6399914,21.210671 37.368,20.336 C39.0960086,19.461329 41.0906554,19.024 43.352,19.024 C45.6133446,19.024 47.6079914,19.461329 49.336,20.336 C51.0640086,21.210671 52.5039942,22.3839926 53.656,23.856 C54.8080058,25.3280074 55.6719971,27.0133238 56.248,28.912 C56.8240029,30.8106762 57.112,32.7839898 57.112,34.832 Z M54.296,34.832 C54.296,32.9973242 54.0613357,31.2586749 53.592,29.616 C53.1226643,27.9733251 52.4293379,26.5546726 51.512,25.36 C50.5946621,24.1653274 49.4533402,23.2160035 48.088,22.512 C46.7226598,21.8079965 45.144009,21.456 43.352,21.456 C41.559991,21.456 39.9813402,21.8079965 38.616,22.512 C37.2506598,23.2160035 36.1093379,24.1653274 35.192,25.36 C34.2746621,26.5546726 33.5813357,27.9733251 33.112,29.616 C32.6426643,31.2586749 32.408,32.9973242 32.408,34.832 C32.408,36.7093427 32.6426643,38.4586586 33.112,40.08 C33.5813357,41.7013414 34.2746621,43.1093274 35.192,44.304 C36.1093379,45.4986726 37.2506598,46.4479965 38.616,47.152 C39.9813402,47.8560035 41.559991,48.208 43.352,48.208 C45.144009,48.208 46.7226598,47.8560035 48.088,47.152 C49.4533402,46.4479965 50.5946621,45.4986726 51.512,44.304 C52.4293379,43.1093274 53.1226643,41.7013414 53.592,40.08 C54.0613357,38.4586586 54.296,36.7093427 54.296,34.832 Z M75.16,49.744 C73.9653274,50.1706688 72.664007,50.384 71.256,50.384 C69.122656,50.384 67.5546717,49.7013402 66.552,48.336 C65.5493283,46.9706598 65.048,45.3066765 65.048,43.344 L65.048,4.816 L67.864,4.816 L67.864,43.344 C67.864,44.752007 68.1413306,45.8826624 68.696,46.736 C69.2506694,47.5893376 70.2746592,48.016 71.768,48.016 C72.8773389,48.016 73.9013286,47.8666682 74.84,47.568 L75.16,49.744 Z M106.328,34.832 C106.328,36.8800102 106.040003,38.8533238 105.464,40.752 C104.887997,42.6506762 104.024006,44.3359926 102.872,45.808 C101.719994,47.2800074 100.280009,48.453329 98.552,49.328 C96.8239914,50.202671 94.8293446,50.64 92.568,50.64 C90.3066554,50.64 88.3120086,50.202671 86.584,49.328 C84.8559914,48.453329 83.4160058,47.2800074 82.264,45.808 C81.1119942,44.3359926 80.2480029,42.6506762 79.672,40.752 C79.0959971,38.8533238 78.808,36.8800102 78.808,34.832 C78.808,32.7839898 79.0959971,30.8106762 79.672,28.912 C80.2480029,27.0133238 81.1119942,25.3280074 82.264,23.856 C83.4160058,22.3839926 84.8559914,21.210671 86.584,20.336 C88.3120086,19.461329 90.3066554,19.024 92.568,19.024 C94.8293446,19.024 96.8239914,19.461329 98.552,20.336 C100.280009,21.210671 101.719994,22.3839926 102.872,23.856 C104.024006,25.3280074 104.887997,27.0133238 105.464,28.912 C106.040003,30.8106762 106.328,32.7839898 106.328,34.832 Z M103.512,34.832 C103.512,32.9973242 103.277336,31.2586749 102.808,29.616 C102.338664,27.9733251 101.645338,26.5546726 100.728,25.36 C99.8106621,24.1653274 98.6693402,23.2160035 97.304,22.512 C95.9386598,21.8079965 94.360009,21.456 92.568,21.456 C90.775991,21.456 89.1973402,21.8079965 87.832,22.512 C86.4666598,23.2160035 85.3253379,24.1653274 84.408,25.36 C83.4906621,26.5546726 82.7973357,27.9733251 82.328,29.616 C81.8586643,31.2586749 81.624,32.9973242 81.624,34.832 C81.624,36.7093427 81.8586643,38.4586586 82.328,40.08 C82.7973357,41.7013414 83.4906621,43.1093274 84.408,44.304 C85.3253379,45.4986726 86.4666598,46.4479965 87.832,47.152 C89.1973402,47.8560035 90.775991,48.208 92.568,48.208 C94.360009,48.208 95.9386598,47.8560035 97.304,47.152 C98.6693402,46.4479965 99.8106621,45.4986726 100.728,44.304 C101.645338,43.1093274 102.338664,41.7013414 102.808,40.08 C103.277336,38.4586586 103.512,36.7093427 103.512,34.832 Z" id="volo" fill="#8EAADB"></path>
                    <path d="M116.717,22.36 L107.807,22.36 L108.212,19.606 L117.203,19.606 L117.851,15.88 C118.769005,10.7499743 120.415988,6.82151363 122.792,4.0945 C125.168012,1.36748636 128.542978,0.004 132.917,0.004 C133.925005,0.004 135.356005,0.139 137.21,0.409 L136.643,3.3655 C134.987004,3.0685 133.745004,2.92 132.917,2.92 C129.784984,2.92 127.26051,3.90549014 125.3435,5.8765 C123.42649,7.84750985 122.036004,11.3439749 121.172,16.366 L120.605,19.606 L133.565,19.606 L133.079,22.36 L120.119,22.36 L114.611,53.464 C114.124998,56.3260143 113.490504,59.0934866 112.7075,61.7665 C111.924496,64.4395134 110.885006,66.7884899 109.589,68.8135 C108.292994,70.8385101 106.65951,72.4584939 104.6885,73.6735 C103.374493,74.483504 100.903993,75.091004 97.277,75.496 L97.196,72.58 C100.039995,72.2560032 101.983995,71.7700032 103.028,71.122 C104.594008,70.1499951 105.903495,68.8000086 106.9565,67.072 C108.009505,65.3439914 108.859997,63.3055117 109.508,60.9565 C110.156003,58.6074883 110.722998,56.0830135 111.209,53.383 L116.717,22.36 Z" id="f" fill="#3E4155"></path>
                    <path d="M138.44,50 L138.44,19.664 L141.256,19.664 L141.256,50 L138.44,50 Z M137.544,9.744 C137.544,9.1039968 137.757331,8.56000224 138.184,8.112 C138.610669,7.66399776 139.16533,7.44 139.848,7.44 C140.53067,7.44 141.085331,7.66399776 141.512,8.112 C141.938669,8.56000224 142.152,9.1039968 142.152,9.744 C142.152,10.3840032 141.938669,10.9279978 141.512,11.376 C141.085331,11.8240022 140.53067,12.048 139.848,12.048 C139.16533,12.048 138.610669,11.8240022 138.184,11.376 C137.757331,10.9279978 137.544,10.3840032 137.544,9.744 Z M154.76,24.272 C155.99734,22.6506586 157.501324,21.3706714 159.272,20.432 C161.042676,19.4933286 163.015989,19.024 165.192,19.024 C167.026676,19.024 168.605327,19.4186627 169.928,20.208 C171.250673,20.9973373 172.338662,22.0639933 173.192,23.408 C174.045338,24.7520067 174.674665,26.319991 175.08,28.112 C175.485335,29.904009 175.688,31.8026566 175.688,33.808 L175.688,50 L172.872,50 L172.872,34.256 C172.872,32.5066579 172.733335,30.8533411 172.456,29.296 C172.178665,27.7386589 171.720003,26.3840058 171.08,25.232 C170.439997,24.0799942 169.576005,23.1626701 168.488,22.48 C167.399995,21.7973299 166.066675,21.456 164.488,21.456 C162.610657,21.456 160.850675,21.9786614 159.208,23.024 C157.565325,24.0693386 156.146673,25.3173261 154.952,26.768 L154.952,50 L152.136,50 L152.136,19.664 L154.76,19.664 L154.76,24.272 Z" id="in" fill="#3E4155"></path>
                </g>
                <g id="plane" transform="translate(73.177259, 22.805902) rotate(-5.000000) translate(-73.177259, -22.805902) translate(1.177259, 6.305902)">
                    <polygon id="Path-3" fill="#84A0D1" points="31 33 25 10 143.457554 0.862529237"></polygon>
                    <polyline id="bottom-dark" fill="#7A96C7" points="31 33 38 16 140.381814 1.59725671"></polyline>
                    <polygon id="bottom-tri" fill="url(#linearGradient-1)" points="38 16 67 30 143.457554 0.862529237"></polygon>
                    <polygon id="top-tri" fill="url(#linearGradient-2)" points="25 10 0.777726776 2.43313954 143.457554 0.862529237"></polygon>
                </g>
            </g>
        </g>
    </g>
</svg>