<?xml version="1.0" encoding="UTF-8"?>
<svg width="124px" height="124px" viewBox="0 0 124 124" version="1.1" xmlns="http://www.w3.org/2000/svg" xmlns:xlink="http://www.w3.org/1999/xlink">
    <!-- Generator: Sketch 48.2 (47327) - http://www.bohemiancoding.com/sketch -->
    <title>team</title>
    <desc>Created with Sketch.</desc>
    <defs></defs>
    <g id="Page-1" stroke="none" stroke-width="1" fill="none" fill-rule="evenodd">
        <g id="team">
            <circle id="Oval-7" fill="#FFFFFF" cx="62" cy="62" r="62"></circle>
            <g id="bust-copy" transform="translate(71.000000, 27.000000)">
                <path d="M36.1290323,35.2133957 C36.1290323,38.0223261 36.1290323,47.2845276 36.1290323,63 L0,63 C1.36457716e-16,45.9844312 1.36457716e-16,36.3972056 0,34.2383234 C0,31 10.8606035,28 17.5,28 C24.6757385,28 36.1290323,31 36.1290323,35.2133957 Z" id="Combined-Shape" fill="#8EAADB"></path>
                <path d="M8.79632872,29.1810912 C11.7484592,28.4465657 14.938404,28 17.5,28 C20.3469233,28 23.8671549,28.4722148 27.0783144,29.3050722 C24.73534,31.5913017 21.5321796,33 18,33 C14.4044065,33 11.149752,31.5402664 8.79632872,29.1810912 Z" id="Combined-Shape" fill="#839DC9"></path>
                <circle id="Oval-3-Copy" fill="#8EAADB" cx="18" cy="13" r="13"></circle>
            </g>
            <g id="bust-copy-2" transform="translate(16.000000, 27.000000)">
                <path d="M36.1290323,35.2133957 C36.1290323,38.0223261 36.1290323,47.2845276 36.1290323,63 L0,63 C1.36457716e-16,45.9844312 1.36457716e-16,36.3972056 0,34.2383234 C0,31 10.8606035,28 17.5,28 C24.6757385,28 36.1290323,31 36.1290323,35.2133957 Z" id="Combined-Shape" fill="#8EAADB"></path>
                <path d="M8.79632872,29.1810912 C11.7484592,28.4465657 14.938404,28 17.5,28 C20.3469233,28 23.8671549,28.4722148 27.0783144,29.3050722 C24.73534,31.5913017 21.5321796,33 18,33 C14.4044065,33 11.149752,31.5402664 8.79632872,29.1810912 Z" id="Combined-Shape" fill="#839DC9"></path>
                <circle id="Oval-3-Copy-4" fill="#8EAADB" cx="18" cy="13" r="13"></circle>
            </g>
            <g id="bust" transform="translate(44.000000, 35.000000)">
                <path d="M36.1290323,35.2133957 C36.1290323,38.0223261 36.1290323,47.2845276 36.1290323,63 L0,63 C1.36457716e-16,45.9844312 1.36457716e-16,36.3972056 0,34.2383234 C0,31 10.8606035,28 17.5,28 C24.6757385,28 36.1290323,31 36.1290323,35.2133957 Z" id="Combined-Shape" fill="#C0DCFF"></path>
                <path d="M8.79632872,29.1810912 C11.7484592,28.4465657 14.938404,28 17.5,28 C20.3469233,28 23.8671549,28.4722148 27.0783144,29.3050722 C24.73534,31.5913017 21.5321796,33 18,33 C14.4044065,33 11.149752,31.5402664 8.79632872,29.1810912 Z" id="Combined-Shape" fill="#B2CDED"></path>
                <circle id="Oval-3-Copy-3" fill="#C0DCFF" cx="18" cy="13" r="13"></circle>
            </g>
        </g>
    </g>
</svg>